<svg width="48" height="48" viewBox="0 0 48 48" fill="none" xmlns="http://www.w3.org/2000/svg">
<circle cx="24" cy="24" r="24" fill="#4F46A2"/>
<path fill-rule="evenodd" clip-rule="evenodd" d="M24.3583 21.6356C27.0088 21.6356 29.1575 19.4786 29.1575 16.8178C29.1575 14.157 27.0088 12 24.3583 12C21.7078 12 19.5591 14.157 19.5591 16.8178C19.5591 19.4786 21.7078 21.6356 24.3583 21.6356ZM10.843 15.1502C10.843 16.0769 10.0946 16.8281 9.17148 16.8281C8.24835 16.8281 7.5 16.0769 7.5 15.1502C7.5 14.2234 8.24835 13.4722 9.17148 13.4722C10.0946 13.4722 10.843 14.2234 10.843 15.1502ZM39.3591 16.8281C40.2822 16.8281 41.0306 16.0769 41.0306 15.1502C41.0306 14.2234 40.2822 13.4722 39.3591 13.4722C38.4359 13.4722 37.6876 14.2234 37.6876 15.1502C37.6876 16.0769 38.4359 16.8281 39.3591 16.8281ZM33.4411 14.888C33.4411 20.0254 29.2925 24.1901 24.1749 24.1901C19.0573 24.1901 14.9087 20.0254 14.9087 14.888C14.9087 14.7026 14.9141 14.5185 14.9248 14.3359C12.8586 16.3413 11.4365 19.0113 11.0002 22.0028C15.8006 22.0203 19.6866 25.9322 19.6866 30.7553C19.6866 32.6544 19.0842 34.4121 18.0607 35.8466C19.8959 36.8022 21.9806 37.3422 24.1909 37.3422C26.5153 37.3422 28.7008 36.745 30.6034 35.6952C29.6442 34.2893 29.083 32.5881 29.083 30.7553C29.083 26.0624 32.7622 22.2321 37.3829 22.0126C36.9459 19.0009 35.5098 16.3144 33.4231 14.3031C33.4351 14.4965 33.4411 14.6916 33.4411 14.888Z" fill="white"/>
</svg>
